# xmcd CD database file
# Generated: Wed Sep 17 21:45:23 2003 by KSCD
# 
# Track frame offsets:
#       150
#       19977
#       36550
#       54790
#       71960
#       97327
#       113342
#       130257
#       152257
#       170100
#       187925
#       208622
#
# Disc length: 3011 seconds
#
# Revision: 1
# Processed by: cddbd v1.4PL0 Copyright (c) Steve Scherf et al.
# Submitted via: Kscd 1.3.3
#
DISCID=a50bc10c
DTITLE=Dave Hole - Outside Looking In
DYEAR=2001
DGENRE=
TTITLE0=Jenny Lee
TTITLE1=He Knows The Rules
TTITLE2=Outside Looking In
TTITLE3=You Move Me So
TTITLE4=How Long?
TTITLE5=Nobody
TTITLE6=Blues Begins At Home
TTITLE7=Walk Away
TTITLE8=Get A Job
TTITLE9=Insomniac
TTITLE10=Out Of My Reach
TTITLE11=Living On Borrowed Time
EXTD=
EXTT0=
EXTT1=
EXTT2=
EXTT3=
EXTT4=
EXTT5=
EXTT6=
EXTT7=
EXTT8=
EXTT9=
EXTT10=
EXTT11=
PLAYORDER=
